PathFileType  4	(X/Y/Z) C:\Users\antoi\Documents\MyRepositories\mobilecap\ResultsAnalysis
DataRate	CameraRate	NumFrames	NumMarkers	Units	OrigDataRate	OrigDataStartFrame	OrigNumFrames
100.0	100.0	5	51	mm	100.0	37	144
Frame#	Time	r_knee			r_shank_antsup			r_ankle			r_calc			r_5meta			r_toe			L_knee			L_shank_antsup			L_ankle			L_calc			L_5meta			L_toe			r_sh2			r_sh3			r_sh4			L_sh2			L_sh3			r_thigh1			r_thigh2			r_thigh3			r_thigh4			r_thigh5			L_thigh1			L_thigh2			L_thigh3			L_thigh4			r.ASIS			r.PSIS			L.ASIS			L.PSIS			C7			R_Shoulder			L_Shoulder			R_Sternum			L_Sternum			R_humerus			R_elbow_med			R_elbow_lat			R_forearm			R_wrist_radius			R_wrist_ulna			L_humerus			L_elbow_med			L_elbow_lat			L_forearm			L_wrist_radius			L_wrist_ulna			R_HJC			L_HJC			R_HJC_reg			L_HJC_reg			
		X1	Y1	Z1	X2	Y2	Z2	X3	Y3	Z3	X4	Y4	Z4	X5	Y5	Z5	X6	Y6	Z6	X7	Y7	Z7	X8	Y8	Z8	X9	Y9	Z9	X10	Y10	Z10	X11	Y11	Z11	X12	Y12	Z12	X13	Y13	Z13	X14	Y14	Z14	X15	Y15	Z15	X16	Y16	Z16	X17	Y17	Z17	X18	Y18	Z18	X19	Y19	Z19	X20	Y20	Z20	X21	Y21	Z21	X22	Y22	Z22	X23	Y23	Z23	X24	Y24	Z24	X25	Y25	Z25	X26	Y26	Z26	X27	Y27	Z27	X28	Y28	Z28	X29	Y29	Z29	X30	Y30	Z30	X31	Y31	Z31	X32	Y32	Z32	X33	Y33	Z33	X34	Y34	Z34	X35	Y35	Z35	X36	Y36	Z36	X37	Y37	Z37	X38	Y38	Z38	X39	Y39	Z39	X40	Y40	Z40	X41	Y41	Z41	X42	Y42	Z42	X43	Y43	Z43	X44	Y44	Z44	X45	Y45	Z45	X46	Y46	Z46	X47	Y47	Z47	X48	Y48	Z48	X49	Y49	Z49	X50	Y50	Z50	X51	Y51	Z51	

37	0.36000000	236.25579	543.88032	-65.80223	265.74782	448.66931	-83.79970	187.26032	119.85479	-137.96139	107.19056	75.72571	-185.35209	303.26121	46.82092	-98.61019	361.25898	74.28258	-164.09491	430.52618	582.65585	-382.16992	421.52680	493.54207	-405.07292	321.32198	178.06360	-350.04011	240.64099	135.04629	-289.35533	415.22646	80.64866	-396.32773	483.94327	98.55365	-340.84306	245.37755	338.62457	-68.23500	203.03617	464.73798	-44.67542	165.15039	354.80266	-46.90793	334.97042	515.81472	-390.07045	318.79667	394.98122	-383.84458	324.11279	865.05694	-25.13318	324.09444	754.59261	-36.02380	264.91338	729.40271	-13.11048	212.03307	861.21577	-8.23981	213.26339	748.50385	-27.60271	391.00579	885.52220	-374.04582	459.09466	762.23619	-368.42944	297.46366	831.44856	-401.64440	362.23132	710.71902	-400.53357	324.41891	1091.17423	-61.53125	141.07726	1086.26020	-126.14235	321.31965	1081.18717	-312.06222	134.55607	1082.79905	-237.01123	238.51323	1624.64386	-289.92696	343.02104	1587.25367	-131.77387	235.68659	1512.54463	-446.28362	349.78408	1523.64905	-268.09452	332.55532	1508.31871	-318.30331	364.31362	1446.07125	-36.95377	270.45838	1247.91658	-1.01326	309.53611	1283.85022	66.36160	407.02756	1138.64077	93.02225	465.18827	1061.37692	83.92962	431.73659	1060.29568	116.61539	190.51243	1376.28010	-493.12831	143.95581	1160.28177	-380.41536	134.65950	1158.94080	-462.46598	167.57157	1093.12897	-488.13069	215.22464	918.71421	-485.30049	174.56968	912.07065	-481.93752	255.02632	967.71374	-75.88479	245.40410	965.69880	-282.61217	275.30948	1002.13503	-91.12885	265.59732	996.98057	-256.25313	
38	0.37000000	241.56190	543.73930	-65.08421	270.08979	448.01925	-83.21781	187.49968	120.05000	-138.02538	107.26958	75.88494	-185.49978	303.24919	46.77874	-98.53614	361.43717	74.18654	-163.97998	444.06889	581.67205	-381.51805	439.36355	492.23625	-404.94102	360.14031	170.51153	-350.43041	282.45144	123.26122	-289.31870	458.59474	78.24077	-397.81260	526.92378	99.67330	-342.90880	248.23197	338.19964	-67.90003	207.45480	464.81612	-44.23469	168.21270	355.37731	-46.70717	351.79638	508.63018	-389.33645	343.59877	387.05158	-383.56371	333.09416	864.06931	-23.49828	331.85772	753.63382	-34.58912	272.35031	728.96799	-12.13227	220.52139	861.23534	-6.93376	220.76917	748.50061	-26.71346	404.69326	884.98493	-372.22043	472.20504	761.33450	-366.65034	311.31801	831.24834	-400.02048	375.21949	710.16545	-398.75258	335.15218	1090.74847	-60.05190	152.37442	1085.47175	-126.07564	333.99072	1080.27999	-310.59744	146.75133	1081.49121	-236.93108	251.13996	1622.64813	-293.93817	356.90626	1587.05151	-136.23352	246.97199	1508.44146	-448.90426	362.26220	1521.56054	-271.67376	344.40177	1505.68669	-321.48839	379.72661	1447.57645	-39.66827	287.57701	1249.37147	0.90314	327.46571	1286.81210	67.12368	428.42947	1143.84579	93.13849	488.43023	1068.12513	83.46075	455.35295	1066.19966	116.51269	200.20296	1371.82690	-493.35497	152.02781	1158.52500	-377.00068	141.93491	1155.95993	-458.90788	172.26271	1088.87684	-483.74950	212.22594	912.43411	-477.94991	172.09178	907.64036	-474.54921	266.17018	967.16252	-74.65206	258.13540	964.64595	-281.44038	286.28337	1001.89656	-89.64891	277.90386	995.96597	-254.83027	
39	0.38000000	247.08205	543.48382	-64.29047	274.57839	447.23768	-82.56412	187.77147	120.21484	-138.08740	107.33711	76.05706	-185.66186	303.22526	46.73635	-98.44410	361.61585	74.07039	-163.85156	457.10268	580.05862	-381.04745	456.76610	490.69690	-404.82250	398.71815	164.03258	-350.69768	324.23011	112.79493	-289.20208	501.60599	77.03046	-398.85498	569.23502	102.10885	-344.47698	251.21871	337.67924	-67.53300	212.05051	464.77579	-43.73575	171.43257	355.85695	-46.48156	368.55049	501.34189	-388.76917	368.19507	379.55708	-383.36945	342.20384	862.95715	-21.91685	339.77419	752.60523	-33.27287	280.02496	728.43456	-11.11557	229.25858	861.12564	-5.56215	228.50819	748.38063	-25.74089	417.67148	883.57202	-370.38255	484.28882	759.40486	-364.91354	324.29821	830.45280	-398.02858	387.02267	708.85797	-396.93264	345.94810	1090.14109	-58.67002	163.79274	1084.51267	-126.01880	346.71940	1079.04216	-309.20457	159.06921	1079.88866	-236.83793	263.72839	1620.33121	-298.13313	370.69263	1586.58396	-140.86880	258.34963	1504.01854	-451.67182	374.85395	1519.19977	-275.38140	356.26523	1502.77547	-324.79164	395.04848	1448.88712	-42.54056	304.66630	1250.74534	2.69716	345.34630	1289.72746	67.72438	449.59822	1148.99138	93.04954	511.29824	1074.72022	82.73249	478.63566	1072.11974	116.23457	209.97707	1367.12607	-493.75322	160.13197	1156.58472	-373.76149	149.30036	1152.84236	-455.52087	177.10291	1084.61372	-479.47310	209.17974	906.49247	-470.41976	169.86391	903.69020	-467.23186	277.41223	966.44025	-73.38931	270.91922	963.28127	-280.22185	297.28539	1001.53692	-88.16874	290.24168	994.64404	-253.38394	
40	0.39000000	252.92381	543.09165	-63.44286	279.31722	446.30913	-81.88589	188.08209	120.35492	-138.15493	107.41038	76.23898	-185.84690	303.19832	46.69347	-98.34161	361.78419	73.92199	-163.71710	469.70602	577.91289	-380.68246	473.75143	488.98835	-404.68159	436.81285	158.71226	-350.87734	365.65591	103.68671	-289.06791	544.05544	77.13042	-399.47214	610.62935	105.95042	-345.52713	254.43883	337.04116	-67.16161	216.94269	464.59826	-43.18593	174.91980	356.22834	-46.21968	385.19954	494.11520	-388.33257	392.46221	372.62215	-383.22480	351.45498	861.71601	-20.36338	347.87038	751.48732	-32.01601	287.92084	727.79033	-10.07376	238.25972	860.87489	-4.19650	236.49706	748.14269	-24.73256	429.82557	881.34199	-368.51598	495.37966	756.58936	-363.25296	336.28372	829.00763	-395.80816	397.75067	706.84006	-395.25836	356.84150	1089.33074	-57.37766	175.34628	1083.37357	-125.96375	359.54097	1077.48514	-307.90438	171.51388	1078.01756	-236.72949	276.26925	1617.69934	-302.49848	384.39265	1585.84407	-145.67577	269.83853	1499.27459	-454.58113	387.55929	1516.58017	-279.21355	368.16559	1499.59487	-328.20823	410.28770	1449.97337	-45.58995	321.72619	1252.02689	4.34567	363.17200	1292.57753	68.14297	470.52807	1154.04573	92.73930	533.76633	1081.12482	81.74773	501.58349	1078.00066	115.77114	219.85647	1362.17994	-494.33439	168.24969	1154.47775	-370.69687	156.71318	1149.60233	-452.29056	182.05915	1080.34621	-475.31467	206.25199	900.93183	-462.74979	167.91682	900.23154	-460.01116	288.76841	965.52927	-72.11756	283.76463	961.62186	-278.97842	308.35660	1001.01083	-86.70927	302.63738	993.02141	-251.95246	
41	0.40000000	259.16127	542.54697	-62.56362	284.39122	445.22592	-81.22133	188.43637	120.47959	-138.23190	107.50464	76.43109	-186.06601	303.17863	46.64879	-98.23853	361.94527	73.73648	-163.57944	481.92061	575.34210	-380.33194	490.29710	487.15159	-404.48567	474.20299	154.57430	-351.02285	406.43315	95.93692	-288.98968	585.69262	78.58565	-399.73635	650.83962	111.16925	-346.09979	257.97576	336.27158	-66.80805	222.22809	464.27213	-42.59056	178.76391	356.48765	-45.90924	401.69312	487.03968	-387.92584	416.28098	366.27344	-383.05799	360.85590	860.35119	-18.81960	356.16130	750.26889	-30.76897	296.01913	727.02604	-9.01176	247.50291	860.48068	-2.88831	244.74274	747.78936	-23.72622	441.10342	878.40668	-366.61315	505.58312	753.08755	-361.70919	347.26544	826.90052	-393.53507	407.58251	704.19142	-393.86486	367.87212	1088.30787	-56.16082	187.04083	1082.04849	-125.90501	372.47396	1075.62568	-306.71468	184.08320	1075.91831	-236.60543	288.76537	1614.76894	-307.02015	398.02036	1584.82889	-150.64463	281.45078	1494.21206	-457.62265	400.33576	1513.71144	-283.16401	380.12848	1496.15899	-331.73757	425.44483	1450.80725	-48.83060	338.74885	1253.20831	5.83088	380.93059	1295.34251	68.36326	491.20549	1158.97840	92.19885	555.80666	1087.31278	80.51267	524.19063	1083.78739	115.11470	229.85322	1356.99346	-495.09506	176.37611	1152.22237	-367.80528	164.12472	1146.25854	-449.20128	187.09267	1076.08185	-471.28300	203.68684	895.77853	-455.02730	166.32564	897.21018	-452.91711	300.25058	964.42087	-70.85696	296.67196	959.69288	-277.73109	319.53778	1000.26672	-85.29433	315.12018	991.11424	-250.58113	
